<svg xmlns="http://www.w3.org/2000/svg" version="1.0" preserveAspectRatio="xMidYMid meet" viewBox="480 507.15 619 457.35"><g transform="translate(0.000000,1600.000000) scale(0.100000,-0.100000)" stroke="none"><path d="M7725 10915 c-308 -48 -598 -195 -834 -422 -84 -81 -97 -90 -118 -82 -14 5 -54 9 -91 9 -162 0 -285 -123 -286 -285 -1 -242 266 -377 463 -235 26 20 49 29 59 25 16 -6 170 -94 507 -290 107 -63 140 -86 138 -101 0 -10 -6 -47 -12 -81 -20 -110 15 -240 91 -335 42 -54 138 -115 211 -135 l57 -16 0 -229 c0 -215 -1 -228 -17 -219 -10 5 -101 57 -203 116 -102 59 -234 135 -293 169 -85 48 -107 65 -103 79 9 36 -23 114 -59 146 -20 17 -40 31 -45 31 -6 0 -10 115 -10 303 0 277 -2 305 -17 319 -19 15 -91 58 -99 58 -2 0 -4 -150 -4 -333 l0 -334 -37 -24 c-57 -37 -83 -82 -83 -146 0 -60 15 -95 57 -135 54 -52 130 -63 198 -28 l39 20 161 -92 c88 -51 239 -138 335 -194 l175 -101 3 -90 3 -89 -55 -23 c-60 -25 -141 -102 -152 -145 -3 -15 -13 -26 -23 -26 -29 0 -163 38 -231 65 -447 181 -748 529 -868 1005 -25 98 -27 120 -27 320 1 170 4 229 18 283 22 90 22 95 -10 103 -16 4 -40 13 -54 20 l-27 13 -16 -72 c-30 -130 -39 -237 -33 -412 4 -115 13 -198 26 -257 108 -474 405 -854 826 -1058 125 -61 235 -101 333 -121 l58 -12 16 -57 c21 -71 80 -139 150 -174 63 -31 158 -35 233 -9 68 23 136 92 165 169 54 145 -20 314 -163 369 l-47 18 0 387 0 388 46 11 c237 60 367 309 293 559 -2 7 76 58 194 126 l197 115 0 -353 0 -352 -40 -30 c-45 -33 -71 -80 -78 -141 l-5 -42 -242 -140 c-134 -78 -250 -144 -259 -147 -13 -5 -16 -21 -16 -75 0 -38 3 -69 8 -69 4 0 23 10 42 21 45 28 419 244 484 280 l48 27 46 -20 c197 -88 352 189 172 308 l-40 27 0 387 0 387 77 45 77 45 44 -33 c53 -41 140 -68 198 -61 l43 4 21 -80 c100 -371 48 -768 -144 -1096 -65 -111 -115 -174 -219 -280 -155 -157 -331 -269 -535 -341 -59 -21 -107 -42 -107 -46 0 -5 4 -31 8 -57 8 -48 9 -48 40 -42 59 13 221 76 297 117 671 357 978 1100 759 1838 -10 33 -8 37 30 79 49 53 71 115 71 200 -1 254 -313 377 -495 196 -65 -65 -96 -168 -77 -253 10 -41 9 -43 -22 -59 -17 -8 -83 -46 -146 -83 -328 -190 -449 -260 -471 -270 -22 -10 -29 -7 -69 30 -164 151 -414 152 -581 3 -26 -24 -49 -43 -52 -43 -8 0 -370 209 -381 220 -4 5 7 16 25 26 33 16 103 57 432 248 l147 86 33 -20 c42 -26 120 -26 168 -1 l35 19 263 -151 263 -151 55 29 c30 17 56 32 58 36 2 3 -125 80 -283 171 l-286 166 -11 56 c-20 101 -81 156 -172 156 -30 0 -71 -7 -90 -17 -47 -22 -85 -82 -91 -143 l-4 -49 -317 -182 c-174 -101 -325 -188 -336 -195 -17 -11 -30 -6 -98 33 -67 39 -77 48 -71 67 22 67 -6 196 -54 249 -16 19 -13 23 77 108 175 167 390 287 622 347 329 87 686 49 991 -104 121 -61 185 -103 294 -195 67 -57 96 -75 101 -65 4 7 23 23 41 36 17 13 32 27 32 31 0 5 -36 39 -80 77 -225 195 -489 319 -785 367 -109 18 -367 18 -480 0z m-966 -630 c41 -20 79 -69 91 -116 9 -32 8 -50 -5 -89 -49 -146 -243 -159 -312 -20 -29 56 -29 96 0 151 41 78 150 114 226 74z m2569 1 c91 -48 123 -164 67 -248 -29 -43 -91 -78 -140 -78 -36 0 -104 30 -127 56 -24 28 -48 88 -48 122 0 46 42 114 86 139 45 26 121 30 162 9z m-1233 -620 c60 -27 116 -79 147 -138 33 -61 33 -213 1 -273 -96 -180 -331 -222 -484 -87 -19 17 -48 57 -64 89 -36 74 -39 181 -7 254 70 160 248 228 407 155z m-60 -1605 c97 -45 133 -147 82 -235 -39 -69 -109 -101 -186 -85 -109 23 -167 155 -110 249 49 79 134 108 214 71z"></path><path d="M10182 7780 c-12 -31 -257 -637 -436 -1077 l-134 -333 47 0 47 0 63 158 c35 86 77 190 93 230 l30 72 299 0 c276 0 300 -1 306 -17 3 -10 43 -112 89 -228 l83 -210 50 -3 c28 -2 51 1 51 6 0 5 -40 108 -89 229 -123 302 -330 815 -406 1005 -35 86 -68 165 -74 175 -9 16 -10 16 -19 -7z m166 -594 c56 -142 102 -262 102 -267 0 -5 -117 -9 -260 -9 -145 0 -260 4 -260 9 0 5 56 148 123 317 68 170 127 318 131 329 8 22 -4 50 164 -379z"></path><path d="M5400 7748 c-155 -22 -275 -84 -396 -203 -136 -135 -203 -301 -204 -501 0 -310 196 -572 496 -659 l81 -24 452 6 451 6 0 43 0 44 -201 2 -201 3 54 43 c80 65 144 147 193 247 57 118 70 177 68 310 -1 127 -25 218 -88 332 -52 93 -187 226 -282 276 -123 65 -290 95 -423 75z m287 -118 c123 -43 236 -131 309 -242 162 -243 131 -552 -75 -759 -122 -122 -257 -179 -426 -179 -105 0 -170 15 -261 59 -376 185 -455 686 -153 980 72 72 151 119 247 148 101 30 263 27 359 -7z"></path><path d="M10900 7055 l0 -685 45 0 45 0 0 685 0 685 -45 0 -45 0 0 -685z"></path><path d="M8997 7454 c-4 -4 -7 -81 -7 -170 l0 -163 -77 -3 -78 -3 -3 -37 -3 -38 80 0 81 0 0 -335 0 -335 50 0 50 0 0 335 0 335 116 0 115 0 -3 38 -3 37 -112 3 -113 3 -2 167 -3 167 -40 3 c-23 2 -44 0 -48 -4z"></path><path d="M7408 7135 c-80 -20 -132 -49 -183 -100 -187 -187 -132 -533 103 -643 51 -24 69 -27 167 -27 104 0 114 2 177 33 37 18 87 53 112 77 l46 44 0 -74 0 -75 45 0 45 0 0 375 0 375 -39 0 -39 0 -7 -75 -7 -76 -30 41 c-33 45 -92 89 -153 115 -55 23 -167 28 -237 10z m242 -96 c115 -54 180 -153 180 -275 0 -145 -50 -236 -164 -294 -61 -31 -77 -35 -145 -34 -91 1 -149 24 -214 83 -133 123 -137 339 -9 464 90 88 235 110 352 56z"></path><path d="M8414 7136 c-74 -18 -155 -67 -189 -114 -16 -22 -33 -41 -37 -41 -5 -1 -8 30 -8 68 0 74 -6 83 -53 74 l-27 -5 0 -374 0 -374 45 0 45 0 0 233 c1 249 5 275 55 347 82 118 270 154 352 67 50 -52 53 -77 53 -373 l0 -274 45 0 45 0 0 293 c0 173 -4 307 -11 330 -13 49 -64 106 -115 128 -55 25 -138 31 -200 15z"></path><path d="M6393 7122 l-23 -3 0 -280 c0 -171 4 -297 11 -324 13 -50 66 -117 113 -142 47 -26 196 -23 256 4 63 29 127 78 149 114 l19 31 7 -76 7 -76 39 0 39 0 0 375 0 375 -44 0 -44 0 -4 -237 c-3 -224 -5 -241 -26 -284 -81 -165 -289 -224 -385 -110 -14 17 -31 48 -37 69 -5 21 -10 149 -10 298 l0 262 -22 4 c-13 2 -33 2 -45 0z"></path></g></svg>